<?xml version="1.0" encoding="utf-8"?>
<!-- Generator: Adobe Illustrator 26.3.1, SVG Export Plug-In . SVG Version: 6.00 Build 0)  -->
<svg version="1.1" id="a" xmlns="http://www.w3.org/2000/svg" xmlns:xlink="http://www.w3.org/1999/xlink" x="0px" y="0px"
	 viewBox="0 0 663.3 184.9" style="enable-background:new 0 0 663.3 184.9;" xml:space="preserve">
<style type="text/css">
	.st0{fill:#FFFFFF;}
	.st1{fill:#DD1367;}
</style>
<g>
	<path class="st0" d="M16.3,19.9c0.9-0.8,2.1-1.2,3.4-1.2c0.7,0,1.4,0.2,2,0.5s1.1,0.8,1.5,1.3c0.4,0.6,0.6,1.2,0.7,1.9h13.6
		c-0.2-2.9-1.1-5.5-2.7-7.7c-1.6-2.2-3.7-3.8-6.3-5C25.9,8.6,23,8,19.8,8c-4,0-7.4,0.8-10.4,2.6s-5.3,4.2-6.9,7.3
		C0.8,21.1,0,24.8,0,29s0.8,8,2.4,11.2s3.9,5.6,6.8,7.3c2.9,1.7,6.2,2.5,10,2.5c2.8,0,5.3-0.3,7.5-0.9c2.3-0.6,4.3-1.5,6.1-2.6
		c1.8-1.2,3.3-2.6,4.7-4.3V25.7H20.4l-0.3,9.6l4.1-0.3v3.1c-0.1,0-0.2,0.1-0.2,0.1s-0.1,0.1-0.2,0.1c-0.6,0.3-1.3,0.5-1.9,0.7
		c-0.7,0.2-1.4,0.2-2.2,0.2c-1.3,0-2.4-0.4-3.3-1.2c-0.9-0.8-1.6-2-2.1-3.5c-0.5-1.5-0.8-3.4-0.8-5.6s0.2-4,0.7-5.5
		S15.4,20.8,16.3,19.9L16.3,19.9z"/>
	<path class="st0" d="M70.9,18.2c-2.6-1.6-5.9-2.3-9.8-2.3c-3.6,0-6.7,0.7-9.3,2.1s-4.6,3.4-6.1,6c-1.4,2.6-2.1,5.6-2.1,9.1
		s0.7,6.6,2.1,9.1s3.4,4.5,6,5.9s5.7,2,9.3,2c3.2,0,6-0.5,8.4-1.5c2.4-1,4.4-2.4,5.8-4.2c1.4-1.8,2.2-4,2.4-6.5H65.4
		c-0.1,0.5-0.3,0.9-0.7,1.2c-0.4,0.4-0.9,0.6-1.5,0.8c-0.6,0.2-1.2,0.3-1.8,0.3c-1.3,0-2.3-0.2-3.1-0.7c-0.8-0.5-1.4-1.2-1.7-2.2
		c-0.2-0.5-0.4-1.2-0.4-1.9h21.6c0.4-4.1,0-7.6-1.2-10.5C75.4,22,73.5,19.7,70.9,18.2L70.9,18.2z M56.6,28.1c0.3-1.2,0.9-2,1.6-2.6
		c0.8-0.6,1.8-0.9,3.2-0.9c0.7,0,1.3,0.2,1.9,0.5s1,0.7,1.3,1.3s0.5,1.1,0.6,1.8L56.6,28.1L56.6,28.1z"/>
	<path class="st0" d="M126.8,49.3V26.8c0-2.4-0.4-4.5-1.2-6.1c-0.8-1.7-1.9-2.9-3.3-3.6s-2.9-1.2-4.8-1.2c-2.1,0-4,0.5-5.5,1.5
		c-1.1,0.7-2,1.6-2.7,2.8c-0.7-1.4-1.7-2.4-3-3.1c-1.4-0.8-2.9-1.1-4.6-1.1s-3.2,0.5-4.7,1.5c-1,0.7-1.9,1.5-2.6,2.6l-0.2-3.3H83.7
		v32.8h10.8V28.4c0.4-0.6,0.7-1.1,1.1-1.5c0.6-0.5,1.2-0.8,1.9-0.8c0.4,0,0.8,0.1,1.2,0.3c0.4,0.2,0.6,0.5,0.8,0.9
		c0.2,0.4,0.3,0.9,0.3,1.4v20.7h10.8V28.5c0.4-0.7,0.8-1.2,1.2-1.6c0.6-0.5,1.2-0.8,1.9-0.8c0.5,0,0.9,0.1,1.2,0.3s0.6,0.5,0.8,0.9
		c0.2,0.4,0.3,0.9,0.3,1.4v20.7L126.8,49.3L126.8,49.3z"/>
	<path class="st0" d="M164.2,44.3c1.4-1.8,2.2-4,2.5-6.5h-12.3c-0.1,0.5-0.3,0.9-0.7,1.2c-0.4,0.4-0.9,0.6-1.5,0.8
		c-0.6,0.2-1.2,0.3-1.8,0.3c-1.3,0-2.3-0.2-3.1-0.7c-0.8-0.5-1.4-1.2-1.7-2.2c-0.2-0.5-0.4-1.2-0.4-1.9h21.6c0.4-4.1,0-7.6-1.2-10.5
		c-1.2-2.9-3.1-5.1-5.6-6.7c-2.6-1.6-5.9-2.3-9.8-2.3c-3.6,0-6.7,0.7-9.3,2.1s-4.6,3.4-6.1,6c-1.4,2.6-2.1,5.6-2.1,9.1
		s0.7,6.6,2.1,9.1s3.4,4.5,6,5.9s5.7,2,9.3,2c3.2,0,6-0.5,8.4-1.5C160.8,47.6,162.8,46.1,164.2,44.3L164.2,44.3z M147.1,25.5
		c0.8-0.6,1.8-0.9,3.2-0.9c0.7,0,1.3,0.2,1.9,0.5s1,0.7,1.3,1.3s0.5,1.1,0.6,1.8l-8.4,0C145.9,27,146.4,26.1,147.1,25.5L147.1,25.5z
		"/>
	<polygon class="st0" points="191.2,16.5 187.9,16.5 178.6,16.5 175.4,16.5 175.4,26.6 178.6,26.6 178.6,39.3 173.3,39.3 
		173.3,49.3 178.6,49.3 191.2,49.3 195.5,49.3 195.5,39.3 191.2,39.3 	"/>
	<rect x="178.5" y="3.6" class="st0" width="12.7" height="9.8"/>
	<path class="st0" d="M230.5,17.3c-1.7-1-3.8-1.5-6.3-1.5c-1.5,0-2.9,0.2-4.2,0.7c-1.3,0.4-2.5,1.2-3.8,2.1
		c-0.5,0.4-0.9,0.8-1.3,1.2l-0.2-3.3h-12.3v32.8H215V29.7c0.4-0.5,0.8-0.9,1.2-1.2c0.7-0.7,1.4-1.2,2-1.5s1.4-0.5,2.1-0.5
		c0.6,0,1.1,0.1,1.5,0.4c0.4,0.3,0.7,0.7,0.9,1.2c0.2,0.5,0.3,1.1,0.3,1.8v19.5h12.6V28.2c0-2.6-0.4-4.8-1.3-6.7
		C233.4,19.7,232.2,18.3,230.5,17.3L230.5,17.3z"/>
	<path class="st0" d="M259.2,41.3c-0.5,0.2-1.1,0.2-1.7,0.2c-1,0-1.8-0.1-2.5-0.4c-0.7-0.2-1.2-0.6-1.5-1s-0.5-1-0.5-1.6h-11
		c0,2.4,0.7,4.4,2,6.1c1.3,1.7,3.2,3.1,5.6,4s5.2,1.4,8.3,1.4c3.2,0,5.7-0.5,7.9-1.4c2.2-0.9,3.9-2.2,5.1-3.9
		c1.2-1.7,1.8-3.7,1.8-6.1c0-2.6-0.7-4.7-2-6.1c-1.3-1.4-2.8-2.4-4.5-3c-1.7-0.5-3.9-1-6.4-1.4c-1.1-0.2-2.1-0.4-2.8-0.5
		c-0.7-0.2-1.3-0.4-1.8-0.6s-0.6-0.6-0.6-1.1c0-0.3,0.1-0.5,0.3-0.8c0.2-0.2,0.5-0.5,0.9-0.6c0.4-0.2,0.9-0.2,1.4-0.2
		c1.1,0,2,0.2,2.6,0.6c0.6,0.4,1,1,1.1,1.8h11c-0.1-2.2-0.8-4.1-2-5.7c-1.2-1.7-2.9-2.9-5-3.8c-2.1-0.9-4.7-1.4-7.6-1.4
		c-2.9,0-5.6,0.5-7.8,1.4s-3.9,2.2-5.1,3.9c-1.2,1.7-1.8,3.6-1.8,5.7c0,2.4,0.6,4.4,1.9,5.8c1.2,1.4,2.7,2.4,4.4,2.9
		c1.7,0.6,3.8,1.1,6.2,1.5c1.4,0.2,2.4,0.4,3.1,0.6c0.7,0.2,1.3,0.5,1.8,0.8c0.5,0.3,0.7,0.8,0.7,1.2c0,0.4-0.2,0.7-0.4,1
		C260.1,40.9,259.7,41.1,259.2,41.3L259.2,41.3z"/>
	<path class="st0" d="M309,43.3c1.4-2.1,2.2-4.7,2.4-7.5h-12.5c-0.1,0.9-0.4,1.7-0.7,2.4s-0.9,1.2-1.5,1.5c-0.6,0.3-1.3,0.5-2.1,0.5
		c-0.8,0-1.5-0.3-2.2-0.8c-0.6-0.5-1.1-1.3-1.5-2.4c-0.3-1.1-0.5-2.4-0.5-4c0-1.5,0.2-2.7,0.5-3.8c0.4-1.1,0.9-1.8,1.6-2.4
		c0.7-0.5,1.5-0.8,2.5-0.8c0.7,0,1.4,0.2,1.9,0.5s0.9,0.8,1.2,1.5c0.3,0.7,0.5,1.6,0.6,2.6h12.5c0-2.9-0.7-5.5-2-7.7
		s-3.2-3.9-5.6-5.1c-2.4-1.2-5.3-1.8-8.6-1.8s-6.5,0.7-9,2.1c-2.6,1.4-4.6,3.4-6,5.9c-1.4,2.6-2.1,5.6-2.1,9.1s0.7,6.6,2,9.1
		s3.2,4.5,5.8,5.9c2.5,1.4,5.5,2,9,2c3.5,0,6.2-0.6,8.6-1.8C305.6,47.1,307.5,45.4,309,43.3L309,43.3z"/>
	<path class="st0" d="M331,29.7c0.4-0.4,0.8-0.8,1.1-1.2c0.7-0.7,1.4-1.2,2.1-1.5c0.7-0.3,1.4-0.5,2.1-0.5c0.6,0,1.1,0.1,1.5,0.4
		c0.4,0.3,0.7,0.7,0.9,1.2s0.3,1.1,0.3,1.8v19.5h12.6v-21c0-2.6-0.4-4.8-1.3-6.7c-0.9-1.9-2.1-3.3-3.8-4.3c-1.7-1-3.8-1.5-6.3-1.5
		c-1.5,0-2.9,0.2-4.2,0.7c-1.3,0.4-2.5,1.2-3.7,2.1c-0.4,0.3-0.9,0.7-1.3,1.2V6.2h-12.6v43.2H331L331,29.7L331,29.7z"/>
	<path class="st0" d="M376.2,47.8c0.4-0.3,0.7-0.6,1-0.9l0.2,2.4h12.3V28.1c0-2.5-0.7-4.7-2-6.5c-1.3-1.9-3.1-3.3-5.5-4.3
		c-2.3-1-5.1-1.5-8.2-1.5c-3.3,0-6.1,0.4-8.5,1.3c-2.4,0.9-4.3,2.2-5.6,3.8c-1.3,1.7-2.1,3.7-2.4,6h12c0.1-0.6,0.3-1.1,0.6-1.5
		c0.3-0.4,0.7-0.7,1.2-0.9c0.5-0.2,1.2-0.3,2-0.3c0.7,0,1.4,0.1,1.9,0.3c0.5,0.2,1,0.6,1.2,1.1c0.3,0.5,0.4,1,0.4,1.6v1.5h-5
		c-2.9,0-5.3,0.4-7.4,1.3s-3.6,2.2-4.7,3.8s-1.6,3.6-1.6,5.9c0,1.9,0.5,3.7,1.4,5.2c0.9,1.5,2.2,2.7,3.8,3.5s3.4,1.2,5.3,1.2
		c1.5,0,2.9-0.2,4.2-0.6C374.2,49.1,375.2,48.5,376.2,47.8L376.2,47.8z M371.1,40.5c-0.4-0.1-0.6-0.4-0.8-0.7s-0.3-0.6-0.3-1
		c0-0.4,0.1-0.7,0.3-1c0.2-0.3,0.5-0.5,0.8-0.7c0.3-0.2,0.8-0.3,1.3-0.3l4.6-0.1v2.3c-0.4,0.5-1,0.8-1.6,1.1
		c-0.9,0.4-1.8,0.6-2.9,0.6C372,40.8,371.5,40.7,371.1,40.5z"/>
	<path class="st0" d="M402.3,39.3h-3.7v10h21.9v-10h-5.7V26.6h6.9v-10h-6.9v-2.6c0-0.7,0.1-1.3,0.4-1.8c0.3-0.5,0.7-0.9,1.2-1.2
		c0.5-0.3,1.1-0.4,1.8-0.4h7.7v-10h-10c-2.7,0-5.1,0.6-7.2,1.7c-2.1,1.1-3.7,2.7-4.9,4.8c-1.2,2.1-1.8,4.4-1.8,7.1v2.6h-5.7v10h5.7
		L402.3,39.3L402.3,39.3z"/>
	<path class="st0" d="M434.5,36.8c0,2.8,0.5,5.2,1.6,7.1c1,1.9,2.5,3.2,4.4,4.1c1.9,0.9,4.1,1.3,6.7,1.3h11.4v-10h-6.4
		c-1.4,0-2.4-0.1-3-0.2c-0.7-0.1-1.2-0.4-1.6-0.9s-0.6-1.3-0.6-2.4v-9.2h7.6v-10H447V5.1l-12.5,5v6.5h-5.7v10h5.7L434.5,36.8
		L434.5,36.8z"/>
	<path class="st0" d="M487.8,48.7c2.2-0.9,3.9-2.2,5.1-3.9c1.2-1.7,1.8-3.7,1.8-6.1c0-2.6-0.7-4.7-2-6.1c-1.3-1.4-2.8-2.4-4.5-3
		s-3.9-1-6.4-1.4c-1.1-0.2-2.1-0.4-2.8-0.5c-0.7-0.2-1.3-0.4-1.8-0.6s-0.6-0.6-0.6-1.1c0-0.3,0.1-0.5,0.3-0.8
		c0.2-0.2,0.5-0.5,0.9-0.6s0.9-0.2,1.4-0.2c1.1,0,2,0.2,2.7,0.6s1,1,1.1,1.8h11c-0.1-2.2-0.8-4.1-2-5.7c-1.2-1.7-2.9-2.9-5-3.8
		c-2.1-0.9-4.7-1.4-7.6-1.4s-5.6,0.5-7.8,1.4c-2.2,0.9-3.9,2.2-5.1,3.9c-1.2,1.7-1.8,3.6-1.8,5.7c0,2.4,0.6,4.4,1.9,5.8
		c1.2,1.4,2.7,2.4,4.4,2.9c1.7,0.6,3.8,1.1,6.2,1.5c1.4,0.2,2.4,0.4,3.1,0.6c0.7,0.2,1.3,0.5,1.8,0.8c0.5,0.3,0.7,0.8,0.7,1.2
		c0,0.4-0.2,0.7-0.4,1s-0.7,0.5-1.2,0.6c-0.5,0.2-1.1,0.2-1.7,0.2c-1,0-1.8-0.1-2.5-0.4c-0.7-0.2-1.2-0.6-1.5-1s-0.5-1-0.5-1.6h-11
		c0,2.4,0.7,4.4,2,6.1c1.3,1.7,3.2,3.1,5.6,4c2.4,0.9,5.2,1.4,8.3,1.4S485.6,49.5,487.8,48.7L487.8,48.7z"/>
	<polygon class="st0" points="531.2,31.7 530.7,38.6 529.8,31.7 527.2,16.5 517.5,16.5 515.2,31.9 514.4,38.5 513.9,31.9 
		511.5,16.5 500.2,16.5 506.3,49.3 519.2,49.3 521.7,34.5 522.3,27 522.8,34.5 525.3,49.3 538.4,49.3 544.3,16.5 533.6,16.5 	"/>
	<path class="st0" d="M576.5,18.2c-2.6-1.6-5.9-2.3-9.8-2.3c-3.6,0-6.7,0.7-9.3,2.1s-4.7,3.4-6.1,6c-1.4,2.6-2.2,5.6-2.2,9.1
		s0.7,6.6,2.1,9.1c1.4,2.6,3.4,4.5,6,5.9s5.7,2,9.3,2c3.2,0,6-0.5,8.4-1.5c2.5-1,4.4-2.4,5.8-4.2c1.4-1.8,2.2-4,2.5-6.5h-12.3
		c-0.1,0.5-0.3,0.9-0.7,1.2s-0.9,0.6-1.5,0.8c-0.6,0.2-1.2,0.3-1.8,0.3c-1.3,0-2.3-0.2-3.1-0.7c-0.8-0.5-1.3-1.2-1.7-2.2
		c-0.2-0.5-0.3-1.2-0.4-1.9h21.6c0.4-4.1,0-7.6-1.2-10.5C581,22,579.1,19.7,576.5,18.2L576.5,18.2z M562.2,28.1
		c0.3-1.2,0.8-2,1.5-2.6c0.8-0.6,1.8-0.9,3.2-0.9c0.7,0,1.3,0.2,1.9,0.5s1,0.7,1.3,1.3s0.5,1.1,0.5,1.8L562.2,28.1L562.2,28.1z"/>
	<path class="st0" d="M617.8,17.4c-1.7-1-3.9-1.5-6.5-1.5c-1.5,0-2.8,0.2-4,0.7c-1.2,0.5-2.2,1.2-3.1,2c-0.4,0.3-0.8,0.8-1.2,1.2
		l-0.2-3.2h-12.3v32.8h12.6V29.1c0.3-0.3,0.6-0.7,0.8-0.9c0.6-0.7,1.2-1.1,1.8-1.5c0.6-0.3,1.1-0.5,1.7-0.5c1,0,1.7,0.3,2.1,1
		c0.4,0.7,0.6,1.7,0.6,3v4.7h12.6v-4.7c0-3.3-0.4-6.1-1.2-8.2C620.7,20,619.5,18.4,617.8,17.4L617.8,17.4z"/>
	<polygon class="st0" points="653,26.8 663.3,16.5 648.4,16.5 646.5,18.8 640.1,26.8 641.2,17.3 641.2,6.2 628.6,6.2 628.6,49.3 
		641.2,49.3 641.2,38.4 644,35.6 650.4,49.3 664.2,49.3 	"/>
	<polygon class="st0" points="24.1,85.6 25.7,99.5 15.9,73.9 0.9,73.9 0.9,114.5 13.5,114.5 13.5,102.8 11.9,90 21.7,114.5 
		36.7,114.5 36.7,73.9 24.1,73.9 	"/>
	<path class="st0" d="M67,82.6c-2.4-1-5.1-1.5-8.2-1.5c-3.3,0-6.1,0.4-8.5,1.3s-4.3,2.2-5.6,3.8s-2.1,3.7-2.4,6h12.1
		c0.1-0.6,0.3-1.1,0.6-1.5s0.7-0.7,1.2-0.9s1.2-0.3,2-0.3c0.7,0,1.4,0.1,1.9,0.4c0.5,0.2,1,0.6,1.2,1.1s0.4,1,0.4,1.6v1.5h-5
		c-2.9,0-5.3,0.4-7.4,1.3c-2.1,0.9-3.6,2.2-4.7,3.8s-1.6,3.6-1.6,5.9c0,1.9,0.5,3.7,1.4,5.2c0.9,1.5,2.2,2.7,3.8,3.5
		s3.4,1.2,5.3,1.2c1.6,0,2.9-0.2,4.2-0.6s2.3-0.9,3.2-1.7c0.4-0.3,0.7-0.6,1-0.9l0.2,2.4h12.3V93.4c0-2.5-0.7-4.7-2-6.5
		C71.2,85,69.3,83.5,67,82.6L67,82.6z M61.9,104.3c-0.4,0.5-1,0.8-1.6,1.1c-0.9,0.4-1.8,0.6-2.9,0.6c-0.5,0-1-0.1-1.4-0.2
		s-0.6-0.4-0.8-0.7s-0.3-0.6-0.3-1c0-0.4,0.1-0.7,0.3-1c0.2-0.3,0.5-0.5,0.8-0.7s0.8-0.3,1.3-0.3l4.6-0.1L61.9,104.3L61.9,104.3z"/>
	<path class="st0" d="M100.3,103.4c-0.4,0.7-0.9,1.2-1.5,1.5c-0.6,0.3-1.3,0.5-2.1,0.5c-0.8,0-1.5-0.3-2.2-0.8
		c-0.6-0.5-1.1-1.3-1.5-2.4c-0.4-1.1-0.5-2.4-0.5-4c0-1.5,0.2-2.7,0.6-3.8c0.4-1.1,0.9-1.8,1.6-2.4c0.7-0.5,1.5-0.8,2.4-0.8
		c0.7,0,1.4,0.2,1.9,0.5s0.9,0.8,1.2,1.5c0.3,0.7,0.5,1.6,0.6,2.6h12.5c0-2.9-0.7-5.5-2-7.7c-1.3-2.2-3.2-3.9-5.6-5.1
		s-5.3-1.8-8.6-1.8s-6.5,0.7-9.1,2.1s-4.6,3.4-6,5.9S80,94.7,80,98.2s0.7,6.6,2,9.1c1.3,2.6,3.2,4.5,5.8,5.9s5.5,2,9,2
		s6.2-0.6,8.6-1.8c2.5-1.2,4.4-2.8,5.8-5c1.4-2.1,2.2-4.7,2.4-7.5h-12.5C100.9,101.9,100.7,102.7,100.3,103.4L100.3,103.4z"/>
	<path class="st0" d="M147.9,82.6c-1.7-1-3.8-1.5-6.3-1.5c-1.5,0-2.9,0.2-4.2,0.7s-2.5,1.1-3.7,2.1c-0.4,0.3-0.9,0.7-1.3,1.1V71.4
		h-12.6v43.2h12.6V95c0.4-0.4,0.8-0.8,1.1-1.2c0.7-0.7,1.4-1.2,2.1-1.5c0.7-0.4,1.4-0.5,2.1-0.5c0.6,0,1.1,0.1,1.5,0.4
		c0.4,0.3,0.7,0.7,0.9,1.2s0.3,1.1,0.3,1.8v19.4H153v-21c0-2.6-0.4-4.8-1.3-6.7C150.9,85,149.6,83.6,147.9,82.6L147.9,82.6z"/>
	<path class="st0" d="M188.2,82.6c-1.7-1-3.8-1.5-6.3-1.5c-1.5,0-2.9,0.2-4.2,0.7s-2.5,1.1-3.7,2.1c-0.4,0.3-0.9,0.7-1.3,1.1V71.4
		h-12.6v43.2h12.6V95c0.4-0.4,0.8-0.8,1.1-1.2c0.7-0.7,1.4-1.2,2.1-1.5c0.7-0.4,1.4-0.5,2.1-0.5c0.6,0,1.1,0.1,1.5,0.4
		c0.4,0.3,0.7,0.7,0.9,1.2c0.2,0.5,0.3,1.1,0.3,1.8v19.4h12.6v-21c0-2.6-0.4-4.8-1.3-6.7C191.2,85,189.9,83.6,188.2,82.6L188.2,82.6
		z"/>
	<path class="st0" d="M223.2,82.6c-2.4-1-5.1-1.5-8.2-1.5c-3.3,0-6.1,0.4-8.5,1.3s-4.3,2.2-5.6,3.8s-2.1,3.7-2.4,6h12
		c0.1-0.6,0.3-1.1,0.6-1.5c0.3-0.4,0.7-0.7,1.2-0.9s1.2-0.3,2-0.3c0.7,0,1.4,0.1,1.9,0.4c0.5,0.2,1,0.6,1.2,1.1s0.4,1,0.4,1.6v1.5
		h-5c-2.9,0-5.3,0.4-7.4,1.3s-3.6,2.2-4.7,3.8s-1.6,3.6-1.6,5.9c0,1.9,0.5,3.7,1.4,5.2s2.2,2.7,3.8,3.5s3.4,1.2,5.3,1.2
		c1.5,0,2.9-0.2,4.2-0.6s2.3-0.9,3.2-1.7c0.4-0.3,0.7-0.6,1-0.9l0.2,2.4h12.3V93.4c0-2.5-0.7-4.7-2-6.5S225.6,83.5,223.2,82.6
		L223.2,82.6z M218.1,104.3c-0.4,0.5-1,0.8-1.6,1.1c-0.9,0.4-1.8,0.6-2.9,0.6c-0.5,0-1-0.1-1.4-0.2s-0.6-0.4-0.8-0.7s-0.3-0.6-0.3-1
		c0-0.4,0.1-0.7,0.3-1c0.2-0.3,0.5-0.5,0.8-0.7c0.4-0.2,0.8-0.3,1.3-0.3l4.6-0.1V104.3z"/>
	<polygon class="st0" points="254.8,71.5 251.6,71.5 242.2,71.5 239,71.5 239,81.5 242.2,81.5 242.2,104.5 237.2,104.5 237.2,114.5 
		242.2,114.5 254.8,114.5 259.8,114.5 259.8,104.5 254.8,104.5 	"/>
	<path class="st0" d="M286.4,104.5c-1.4,0-2.4-0.1-3-0.2c-0.7-0.1-1.2-0.4-1.6-0.9s-0.6-1.3-0.6-2.4v-9.2h7.6v-10h-7.6V70.3l-12.5,5
		v6.5H263v10h5.7V102c0,2.8,0.5,5.2,1.6,7.1c1,1.9,2.5,3.2,4.4,4.1c1.9,0.9,4.1,1.3,6.7,1.3h11.4v-10L286.4,104.5L286.4,104.5z"/>
	<rect x="304.4" y="68.8" class="st0" width="12.7" height="9.8"/>
	<polygon class="st0" points="317,81.8 313.8,81.8 304.5,81.8 301.3,81.8 301.3,91.8 304.5,91.8 304.5,104.5 299.2,104.5 
		299.2,114.5 304.5,114.5 317,114.5 321.4,114.5 321.4,104.5 317,104.5 	"/>
	<path class="st0" d="M349.8,84.1c-1-1-2.2-1.7-3.6-2.2c-1.4-0.5-2.8-0.8-4.2-0.8c-2.8,0-5.3,0.6-7.5,1.9c-2.1,1.3-3.8,3.1-5,5.5
		c-1.2,2.4-1.8,5.1-1.8,8.2s0.6,5.6,1.8,7.9c1.2,2.3,2.8,4.1,5,5.4c2.1,1.3,4.6,1.9,7.5,1.9c1.5,0,3-0.2,4.3-0.8
		c1.3-0.5,2.5-1.3,3.4-2.3v2.7c0,1.6-0.4,2.8-1.3,3.6c-0.9,0.8-2.1,1.2-3.6,1.2c-1.3,0-2.3-0.2-3-0.6s-1.1-1.1-1.2-1.9h-13
		c0.2,2.6,1,4.8,2.5,6.6c1.5,1.8,3.4,3.1,5.8,4c2.4,0.9,5.1,1.3,8.3,1.3c3.9,0,7.2-0.5,9.9-1.6c2.7-1.1,4.8-2.7,6.2-4.8
		c1.4-2.1,2.1-4.7,2.1-7.7V81.8H350L349.8,84.1L349.8,84.1z M349.7,99.1c-0.2,0.8-0.6,1.4-1,2c-0.5,0.6-1,1-1.6,1.3
		c-0.6,0.3-1.2,0.4-2,0.4c-1,0-1.9-0.3-2.6-0.8c-0.7-0.5-1.3-1.3-1.7-2.2c-0.4-0.9-0.6-2.1-0.6-3.4s0.2-2.4,0.6-3.4
		c0.4-0.9,1-1.7,1.7-2.2s1.6-0.8,2.7-0.8c0.7,0,1.3,0.1,1.9,0.4c0.6,0.3,1.1,0.7,1.6,1.3c0.5,0.6,0.8,1.2,1,1.9V99.1L349.7,99.1z"/>
	<polygon class="st0" points="404,81.8 389.1,81.8 387.1,84 380.8,92.1 381.8,82.5 381.8,71.5 369.2,71.5 369.2,114.5 381.8,114.5 
		381.8,103.7 384.7,100.8 391,114.5 404.9,114.5 393.6,92 	"/>
	<path class="st0" d="M434.1,83.4c-2.6-1.6-5.9-2.3-9.8-2.3c-3.6,0-6.7,0.7-9.3,2.1s-4.6,3.4-6.1,6c-1.4,2.6-2.2,5.6-2.2,9.1
		s0.7,6.6,2.1,9.1c1.4,2.6,3.4,4.5,6,5.9c2.6,1.4,5.7,2,9.3,2c3.2,0,6-0.5,8.4-1.5c2.5-1,4.4-2.4,5.8-4.2c1.4-1.8,2.2-4,2.5-6.5
		h-12.3c-0.1,0.5-0.3,0.9-0.7,1.2s-0.9,0.6-1.5,0.8c-0.6,0.2-1.2,0.3-1.8,0.3c-1.3,0-2.3-0.2-3.1-0.7c-0.8-0.5-1.4-1.2-1.7-2.2
		c-0.2-0.5-0.3-1.2-0.4-1.9h21.6c0.4-4.1,0-7.6-1.2-10.5C438.5,87.2,436.6,85,434.1,83.4L434.1,83.4z M419.7,93.3
		c0.3-1.1,0.9-2,1.6-2.6c0.8-0.6,1.8-0.9,3.2-0.9c0.7,0,1.3,0.2,1.9,0.5s1,0.7,1.3,1.3s0.5,1.1,0.5,1.8L419.7,93.3L419.7,93.3z"/>
	<rect x="452.3" y="68.8" class="st0" width="12.7" height="9.8"/>
	<polygon class="st0" points="464.9,81.8 461.7,81.8 452.3,81.8 449.1,81.8 449.1,91.8 452.3,91.8 452.3,104.5 447.1,104.5 
		447.1,114.5 452.3,114.5 464.9,114.5 469.3,114.5 469.3,104.5 464.9,104.5 	"/>
	<path class="st0" d="M497.9,104.5c-1.4,0-2.4-0.1-3-0.2c-0.7-0.1-1.2-0.4-1.6-0.9s-0.6-1.3-0.6-2.4v-9.2h7.6v-10h-7.6V70.3l-12.5,5
		v6.5h-5.7v10h5.7V102c0,2.8,0.5,5.2,1.6,7.1c1,1.9,2.5,3.2,4.4,4.1c1.9,0.9,4.1,1.3,6.7,1.3h11.4v-10L497.9,104.5L497.9,104.5z"/>
</g>
<path class="st1" d="M565.1,113.3c2.5-1.3,4.4-3.1,5.7-5.5c1.3-2.4,2-5.1,2-8.2v-27h-6.5v27c0,2-0.4,3.8-1.2,5.4s-1.9,2.7-3.4,3.5
	c-1.5,0.8-3.2,1.2-5.2,1.2s-3.7-0.4-5.1-1.2c-1.5-0.8-2.6-2-3.5-3.5s-1.3-3.3-1.3-5.4v-27h-6.4v27c0,3.1,0.7,5.8,2,8.2
	s3.2,4.2,5.7,5.5s5.3,1.9,8.5,1.9S562.6,114.6,565.1,113.3L565.1,113.3z"/>
<polygon class="st1" points="609.3,114.5 617.2,114.5 617.2,72.7 611.1,72.7 611.1,93.3 611.6,106.3 594.2,72.7 586.2,72.7 
	586.2,114.5 592.4,114.5 592.4,93.8 591.9,81.3 "/>
<path class="st1" d="M654.2,112c3-1.7,5.3-4.2,6.9-7.4c1.6-3.2,2.4-6.9,2.4-11.1s-0.8-7.9-2.4-11s-3.9-5.6-6.9-7.3
	c-3-1.7-6.5-2.6-10.5-2.6h-13v41.9h13C647.7,114.5,651.2,113.7,654.2,112z M637.1,78.1h6.5c2.6,0,5,0.6,7,1.9s3.5,3.1,4.6,5.4
	c1.1,2.3,1.6,5,1.6,8.2s-0.5,6-1.6,8.3s-2.6,4.1-4.6,5.4s-4.3,1.9-7,1.9h-6.5V78.1L637.1,78.1z"/>
<path class="st1" d="M300.8,141.9h-15.9v5.4h15.9V172c0,1.3-0.2,2.5-0.7,3.4c-0.5,1-1.1,1.7-2,2.2c-0.9,0.5-1.9,0.8-3.1,0.8h-15v5.4
	H295c2.7,0,4.9-0.5,6.8-1.4s3.2-2.3,4.1-4.1s1.4-4,1.4-6.6v-29.8H300.8z"/>
<polygon class="st1" points="328,164.8 344.3,164.8 344.3,159.4 328,159.4 328,147.3 351.7,147.3 351.7,141.9 321.6,141.9 
	321.6,183.8 351.9,183.8 351.9,178.4 328,178.4 "/>
<polygon class="st1" points="361.2,147.3 374.7,147.3 374.7,183.8 381.1,183.8 381.1,147.3 394.6,147.3 394.6,141.9 361.2,141.9 "/>
<polygon class="st1" points="404.2,147.3 419.1,147.3 427.8,147.4 422.4,153.9 403.3,179.2 403.3,183.8 435.7,183.8 435.7,178.4 
	420,178.4 411.3,178.3 416.6,171.8 435.7,146.5 435.7,141.9 404.2,141.9 "/>
<polygon class="st1" points="445.2,147.3 458.7,147.3 458.7,183.8 465.1,183.8 465.1,147.3 478.6,147.3 478.6,141.9 445.2,141.9 "/>
<path class="st1" d="M522.8,141.9l-12.9,41.9h6.4l3.3-10.5h15.6l3.2,10.5h6.5l-13-41.9H522.8L522.8,141.9z M521.3,167.8l3.6-11.7
	l2.5-9.2l2.5,9.2l3.6,11.8H521.3L521.3,167.8z"/>
<polygon class="st1" points="561.9,141.9 555.5,141.9 555.5,183.8 583.8,183.8 583.8,178.4 561.9,178.4 "/>
<polygon class="st1" points="600.8,141.9 594.4,141.9 594.4,183.8 622.7,183.8 622.7,178.4 600.8,178.4 "/>
<polygon class="st1" points="639.6,164.8 655.9,164.8 655.9,159.4 639.6,159.4 639.6,147.3 663.3,147.3 663.3,141.9 633.2,141.9 
	633.2,183.8 663.5,183.8 663.5,178.4 639.6,178.4 "/>
</svg>
