<?xml version="1.0" encoding="UTF-8"?><svg id="a" xmlns="http://www.w3.org/2000/svg" viewBox="0 0 845.92 366.72"><defs><style>.b{fill:#fff;}.c{fill:#dd1367;}.d{fill:#19486a;}</style></defs><rect class="d" width="845.92" height="366.72"/><g><path class="b" d="M107.08,111.2c.91-.83,2.05-1.25,3.41-1.25,.74,0,1.42,.16,2.04,.47,.62,.31,1.13,.75,1.51,1.31,.39,.56,.62,1.19,.7,1.89h13.62c-.19-2.95-1.09-5.51-2.68-7.69-1.59-2.17-3.71-3.83-6.35-4.98-2.64-1.14-5.57-1.72-8.79-1.72-3.96,0-7.43,.85-10.42,2.56-2.99,1.71-5.3,4.15-6.93,7.34-1.63,3.18-2.45,6.89-2.45,11.12s.82,8,2.45,11.18c1.63,3.18,3.9,5.62,6.81,7.31,2.91,1.69,6.25,2.53,10.02,2.53,2.76,0,5.27-.3,7.54-.9,2.27-.6,4.29-1.48,6.06-2.65,1.77-1.16,3.33-2.6,4.69-4.31v-16.42h-17.12l-.29,9.61,4.13-.29v3.09c-.12,.04-.19,.08-.23,.12s-.1,.08-.17,.12c-.62,.31-1.26,.54-1.92,.7-.66,.16-1.38,.23-2.15,.23-1.28,0-2.38-.4-3.29-1.19-.91-.8-1.62-1.96-2.13-3.49-.5-1.53-.76-3.41-.76-5.62s.22-4.02,.67-5.53c.45-1.51,1.13-2.69,2.04-3.52Z"/><path class="b" d="M161.68,109.43c-2.6-1.55-5.86-2.33-9.78-2.33-3.57,0-6.67,.7-9.29,2.1-2.62,1.4-4.65,3.39-6.08,5.97-1.44,2.58-2.15,5.6-2.15,9.05s.7,6.58,2.1,9.14,3.4,4.52,6,5.88c2.6,1.36,5.69,2.04,9.26,2.04,3.18,0,6-.49,8.44-1.48,2.45-.99,4.39-2.41,5.82-4.25,1.44-1.84,2.25-4.01,2.45-6.49h-12.34c-.08,.47-.32,.87-.73,1.22-.41,.35-.89,.62-1.46,.82-.56,.19-1.16,.29-1.78,.29-1.28,0-2.31-.24-3.09-.73-.78-.48-1.35-1.21-1.72-2.18-.21-.54-.35-1.17-.44-1.86h21.6c.39-4.08,0-7.57-1.16-10.48-1.16-2.91-3.05-5.14-5.65-6.7Zm-14.33,9.94c.33-1.15,.85-2.03,1.55-2.6,.76-.62,1.81-.93,3.17-.93,.7,0,1.32,.16,1.86,.47,.54,.31,.98,.74,1.31,1.28,.33,.54,.51,1.13,.55,1.75l-8.45,.04Z"/><path class="b" d="M217.52,140.58v-22.53c0-2.45-.41-4.49-1.22-6.14-.82-1.65-1.9-2.86-3.26-3.64-1.36-.78-2.95-1.16-4.77-1.16-2.14,0-3.98,.49-5.53,1.48-1.12,.72-2.02,1.64-2.71,2.76-.74-1.36-1.74-2.41-3-3.11-1.36-.76-2.89-1.14-4.6-1.14s-3.19,.49-4.69,1.48c-1.03,.68-1.88,1.54-2.59,2.55l-.24-3.34h-10.48v32.78h10.83v-20.94c.35-.63,.73-1.14,1.14-1.53,.56-.54,1.21-.82,1.95-.82,.43,0,.82,.1,1.16,.29,.35,.19,.61,.49,.79,.9,.17,.41,.26,.88,.26,1.43v20.67h10.77v-20.85c.39-.68,.79-1.23,1.22-1.63,.58-.54,1.22-.82,1.92-.82,.47,0,.85,.1,1.16,.29,.31,.19,.56,.49,.76,.9,.19,.41,.29,.88,.29,1.43v20.67h10.83Z"/><path class="b" d="M254.93,135.54c1.44-1.84,2.25-4.01,2.45-6.49h-12.34c-.08,.47-.32,.87-.73,1.22-.41,.35-.89,.62-1.46,.82-.56,.19-1.16,.29-1.78,.29-1.28,0-2.31-.24-3.09-.73-.78-.48-1.35-1.21-1.72-2.18-.21-.54-.35-1.17-.44-1.86h21.6c.39-4.08,0-7.57-1.16-10.48-1.16-2.91-3.05-5.14-5.65-6.7-2.6-1.55-5.86-2.33-9.78-2.33-3.57,0-6.67,.7-9.29,2.1s-4.65,3.39-6.08,5.97c-1.44,2.58-2.15,5.6-2.15,9.05s.7,6.58,2.1,9.14,3.4,4.52,6,5.88c2.6,1.36,5.69,2.04,9.26,2.04,3.18,0,6-.49,8.44-1.48,2.45-.99,4.39-2.41,5.82-4.25Zm-17.09-18.78c.76-.62,1.81-.93,3.17-.93,.7,0,1.32,.16,1.86,.47,.54,.31,.98,.74,1.31,1.28,.33,.54,.51,1.13,.55,1.75l-8.45,.04c.33-1.15,.85-2.03,1.55-2.6Z"/><polygon class="b" points="281.89 107.8 278.69 107.8 269.31 107.8 266.11 107.8 266.11 117.81 269.31 117.81 269.31 130.56 264.07 130.56 264.07 140.58 269.31 140.58 281.89 140.58 286.26 140.58 286.26 130.56 281.89 130.56 281.89 107.8"/><rect class="b" x="269.25" y="94.87" width="12.69" height="9.78"/><path class="b" d="M321.22,108.58c-1.69-.99-3.78-1.48-6.26-1.48-1.48,0-2.86,.22-4.16,.67-1.3,.45-2.55,1.15-3.76,2.1-.45,.36-.9,.77-1.34,1.21l-.23-3.28h-12.29v32.78h12.58v-19.6c.43-.47,.82-.88,1.16-1.22,.7-.68,1.38-1.18,2.04-1.51,.66-.33,1.36-.49,2.1-.49,.62,0,1.14,.14,1.54,.41,.41,.27,.7,.66,.87,1.16,.17,.5,.26,1.11,.26,1.8v19.45h12.58v-21.08c0-2.6-.43-4.82-1.28-6.67-.85-1.84-2.13-3.26-3.81-4.25Z"/><path class="b" d="M349.96,132.54c-.51,.16-1.07,.23-1.69,.23-.97,0-1.8-.12-2.47-.35-.68-.23-1.19-.57-1.54-1.02-.35-.45-.52-.98-.52-1.6h-11c0,2.37,.66,4.42,1.98,6.14,1.32,1.73,3.18,3.05,5.59,3.96,2.41,.91,5.18,1.37,8.33,1.37s5.66-.46,7.89-1.37c2.23-.91,3.94-2.22,5.12-3.93,1.18-1.71,1.78-3.73,1.78-6.06,0-2.64-.65-4.68-1.95-6.11-1.3-1.44-2.81-2.43-4.54-2.97-1.73-.54-3.87-1.01-6.43-1.4-1.13-.19-2.06-.37-2.79-.52-.74-.15-1.32-.36-1.75-.61-.43-.25-.64-.61-.64-1.08,0-.27,.11-.53,.32-.79,.21-.25,.52-.46,.93-.61,.41-.15,.88-.23,1.43-.23,1.13,0,2.01,.21,2.65,.64,.64,.43,1,1.03,1.08,1.8h11c-.12-2.17-.78-4.08-1.98-5.74-1.2-1.65-2.87-2.93-5.01-3.84-2.14-.91-4.66-1.37-7.57-1.37s-5.59,.46-7.8,1.37c-2.21,.91-3.91,2.2-5.09,3.87-1.18,1.67-1.78,3.57-1.78,5.71,0,2.45,.62,4.37,1.86,5.76,1.24,1.4,2.7,2.38,4.37,2.94,1.67,.56,3.75,1.06,6.23,1.48,1.36,.23,2.41,.45,3.14,.64,.74,.19,1.34,.46,1.8,.79,.47,.33,.7,.75,.7,1.25,0,.39-.15,.72-.44,.99-.29,.27-.69,.49-1.19,.64Z"/><path class="b" d="M399.7,134.55c1.42-2.15,2.2-4.67,2.36-7.54h-12.52c-.12,.93-.36,1.73-.73,2.39-.37,.66-.86,1.16-1.48,1.48-.62,.33-1.32,.49-2.1,.49-.81,0-1.54-.26-2.18-.79-.64-.52-1.14-1.32-1.48-2.39-.35-1.07-.52-2.4-.52-3.99,0-1.47,.18-2.74,.55-3.78,.37-1.05,.9-1.84,1.6-2.39,.7-.54,1.51-.82,2.45-.82,.74,0,1.36,.16,1.86,.47,.5,.31,.92,.82,1.25,1.51,.33,.7,.53,1.55,.61,2.56h12.52c-.04-2.95-.72-5.53-2.04-7.74-1.32-2.21-3.19-3.92-5.62-5.12-2.43-1.2-5.29-1.81-8.59-1.81s-6.47,.69-9.05,2.07c-2.58,1.38-4.58,3.36-6,5.94-1.42,2.58-2.13,5.62-2.13,9.11s.66,6.58,1.98,9.14c1.32,2.56,3.25,4.52,5.79,5.88,2.54,1.36,5.54,2.04,9,2.04s6.18-.58,8.65-1.75c2.46-1.16,4.41-2.82,5.82-4.98Z"/><path class="b" d="M421.69,120.98c.41-.45,.79-.84,1.14-1.16,.72-.68,1.41-1.19,2.07-1.54,.66-.35,1.36-.52,2.1-.52,.62,0,1.14,.14,1.54,.41,.41,.27,.7,.66,.87,1.16,.17,.5,.26,1.11,.26,1.8v19.45h12.58v-21.02c0-2.6-.43-4.83-1.28-6.7-.85-1.86-2.13-3.29-3.81-4.28-1.69-.99-3.78-1.48-6.26-1.48-1.51,0-2.91,.22-4.19,.67-1.28,.45-2.52,1.15-3.73,2.1-.43,.34-.86,.73-1.28,1.15v-13.58h-12.58v43.15h12.58v-19.6Z"/><path class="b" d="M466.9,139.06c.35-.28,.68-.6,.99-.93l.2,2.44h12.29v-21.19c0-2.48-.66-4.66-1.98-6.52-1.32-1.86-3.15-3.29-5.5-4.28-2.35-.99-5.08-1.48-8.18-1.48-3.26,0-6.09,.45-8.5,1.34-2.41,.89-4.28,2.17-5.62,3.84-1.34,1.67-2.13,3.67-2.36,6h12.05c.12-.58,.32-1.07,.61-1.46,.29-.39,.71-.68,1.25-.87,.54-.19,1.2-.29,1.98-.29,.74,0,1.38,.12,1.92,.35,.54,.23,.96,.58,1.25,1.05,.29,.47,.44,1.01,.44,1.63v1.51h-5.01c-2.87,0-5.34,.45-7.4,1.34-2.06,.89-3.62,2.17-4.69,3.84-1.07,1.67-1.6,3.65-1.6,5.94,0,1.94,.46,3.67,1.37,5.18,.91,1.51,2.17,2.69,3.78,3.52,1.61,.83,3.39,1.25,5.33,1.25,1.55,0,2.94-.18,4.16-.55s2.29-.92,3.2-1.66Zm-5.01-7.28c-.37-.15-.65-.38-.84-.67-.19-.29-.29-.63-.29-1.02,0-.35,.1-.67,.29-.96,.19-.29,.47-.52,.81-.7,.35-.17,.78-.26,1.28-.26l4.6-.15v2.29c-.43,.46-.96,.84-1.57,1.12-.85,.39-1.82,.58-2.91,.58-.54,0-1-.08-1.37-.23Z"/><path class="b" d="M493.07,130.56h-3.67v10.01h21.89v-10.01h-5.65v-12.75h6.87v-10.01h-6.87v-2.62c0-.7,.15-1.31,.44-1.83,.29-.52,.7-.93,1.22-1.22,.52-.29,1.14-.44,1.83-.44h7.74v-10.01h-9.96c-2.72,0-5.12,.55-7.22,1.66-2.1,1.11-3.73,2.69-4.89,4.75-1.17,2.06-1.75,4.43-1.75,7.1v2.62h-5.71v10.01h5.71v12.75Z"/><path class="b" d="M525.2,128.06c0,2.83,.52,5.18,1.57,7.05,1.05,1.86,2.52,3.24,4.43,4.13,1.9,.89,4.13,1.34,6.7,1.34h11.41v-10.01h-6.4c-1.36,0-2.37-.06-3.03-.17-.66-.12-1.18-.43-1.57-.93-.39-.5-.58-1.32-.58-2.45v-9.2h7.57v-10.01h-7.57v-11.47l-12.52,5.01v6.46h-5.71v10.01h5.71v10.25Z"/><path class="b" d="M578.56,139.91c2.23-.91,3.94-2.22,5.12-3.93,1.18-1.71,1.78-3.73,1.78-6.06,0-2.64-.65-4.68-1.95-6.11-1.3-1.44-2.81-2.43-4.54-2.97-1.73-.54-3.87-1.01-6.43-1.4-1.13-.19-2.06-.37-2.79-.52-.74-.15-1.32-.36-1.75-.61-.43-.25-.64-.61-.64-1.08,0-.27,.11-.53,.32-.79,.21-.25,.52-.46,.93-.61,.41-.15,.88-.23,1.43-.23,1.13,0,2.01,.21,2.65,.64,.64,.43,1,1.03,1.08,1.8h11c-.12-2.17-.78-4.08-1.98-5.74-1.2-1.65-2.87-2.93-5.01-3.84-2.14-.91-4.66-1.37-7.57-1.37s-5.59,.46-7.8,1.37c-2.21,.91-3.91,2.2-5.09,3.87-1.18,1.67-1.78,3.57-1.78,5.71,0,2.45,.62,4.37,1.86,5.76,1.24,1.4,2.7,2.38,4.37,2.94,1.67,.56,3.75,1.06,6.23,1.48,1.36,.23,2.41,.45,3.14,.64,.74,.19,1.34,.46,1.8,.79,.47,.33,.7,.75,.7,1.25,0,.39-.15,.72-.44,.99-.29,.27-.69,.49-1.19,.64-.51,.16-1.07,.23-1.69,.23-.97,0-1.8-.12-2.47-.35-.68-.23-1.19-.57-1.54-1.02-.35-.45-.52-.98-.52-1.6h-11c0,2.37,.66,4.42,1.98,6.14,1.32,1.73,3.18,3.05,5.59,3.96,2.41,.91,5.18,1.37,8.33,1.37s5.66-.46,7.89-1.37Z"/><polygon class="b" points="621.97 122.94 621.39 129.86 620.58 122.94 617.9 107.8 608.23 107.8 605.96 123.17 605.15 129.75 604.62 123.17 602.29 107.8 590.94 107.8 597 140.58 609.92 140.58 612.43 125.79 613.01 118.28 613.53 125.79 616.04 140.58 629.14 140.58 635.08 107.8 624.3 107.8 621.97 122.94"/><path class="b" d="M667.25,109.43c-2.6-1.55-5.86-2.33-9.78-2.33-3.57,0-6.67,.7-9.29,2.1s-4.65,3.39-6.08,5.97c-1.44,2.58-2.15,5.6-2.15,9.05s.7,6.58,2.1,9.14c1.4,2.56,3.4,4.52,6,5.88,2.6,1.36,5.69,2.04,9.26,2.04,3.18,0,6-.49,8.44-1.48,2.45-.99,4.39-2.41,5.82-4.25,1.44-1.84,2.25-4.01,2.45-6.49h-12.34c-.08,.47-.32,.87-.73,1.22s-.89,.62-1.46,.82c-.56,.19-1.16,.29-1.78,.29-1.28,0-2.31-.24-3.09-.73-.78-.48-1.35-1.21-1.72-2.18-.21-.54-.35-1.17-.44-1.86h21.6c.39-4.08,0-7.57-1.16-10.48-1.16-2.91-3.05-5.14-5.65-6.7Zm-14.33,9.94c.33-1.15,.85-2.03,1.55-2.6,.76-.62,1.81-.93,3.17-.93,.7,0,1.32,.16,1.86,.47,.54,.31,.98,.74,1.31,1.28,.33,.54,.51,1.13,.55,1.75l-8.45,.04Z"/><path class="b" d="M708.52,108.64c-1.69-1.03-3.87-1.54-6.55-1.54-1.51,0-2.84,.24-3.99,.73-1.15,.49-2.17,1.16-3.09,2.01-.37,.34-.75,.75-1.15,1.19l-.22-3.22h-12.29v32.78h12.58v-20.27c.28-.34,.56-.65,.81-.93,.62-.66,1.21-1.14,1.78-1.46,.56-.31,1.12-.47,1.66-.47,.97,0,1.67,.33,2.1,.99,.43,.66,.64,1.67,.64,3.03v4.72h12.58v-4.72c0-3.34-.39-6.06-1.16-8.15-.78-2.1-2.01-3.66-3.7-4.69Z"/><polygon class="b" points="743.7 118.03 754.08 107.8 739.17 107.8 737.19 110.01 730.84 118.1 731.89 108.55 731.89 97.49 719.31 97.49 719.31 140.58 731.89 140.58 731.89 129.69 734.75 126.87 741.09 140.58 754.95 140.58 743.7 118.03"/><polygon class="b" points="114.85 176.81 116.43 190.72 106.64 165.16 91.68 165.16 91.68 205.8 104.2 205.8 104.2 194.1 102.63 181.23 112.47 205.8 127.43 205.8 127.43 165.16 114.85 165.16 114.85 176.81"/><path class="b" d="M157.74,173.81c-2.35-.99-5.08-1.48-8.18-1.48-3.26,0-6.09,.45-8.5,1.34-2.41,.89-4.28,2.17-5.62,3.84-1.34,1.67-2.12,3.67-2.36,6h12.05c.12-.58,.32-1.07,.61-1.46,.29-.39,.71-.68,1.25-.87,.54-.19,1.2-.29,1.98-.29,.74,0,1.38,.12,1.92,.35,.54,.23,.96,.58,1.25,1.05s.44,1.01,.44,1.63v1.51h-5.01c-2.87,0-5.34,.45-7.39,1.34-2.06,.89-3.62,2.17-4.69,3.84-1.07,1.67-1.6,3.65-1.6,5.94,0,1.94,.46,3.67,1.37,5.18,.91,1.51,2.17,2.69,3.78,3.52,1.61,.83,3.39,1.25,5.33,1.25,1.55,0,2.94-.18,4.16-.55s2.29-.92,3.2-1.66c.35-.28,.68-.6,.99-.93l.2,2.44h12.29v-21.19c0-2.48-.66-4.66-1.98-6.52-1.32-1.86-3.15-3.29-5.5-4.28Zm-5.15,21.74c-.43,.46-.96,.84-1.57,1.12-.85,.39-1.83,.58-2.91,.58-.54,0-1-.08-1.37-.23-.37-.15-.65-.38-.84-.67-.19-.29-.29-.63-.29-1.02,0-.35,.1-.67,.29-.96,.19-.29,.47-.52,.82-.7s.78-.26,1.28-.26l4.6-.15v2.29Z"/><path class="b" d="M191.07,194.62c-.37,.66-.86,1.16-1.48,1.48-.62,.33-1.32,.49-2.1,.49-.81,0-1.54-.26-2.18-.79-.64-.52-1.14-1.32-1.48-2.39-.35-1.07-.52-2.4-.52-3.99,0-1.47,.18-2.74,.55-3.78,.37-1.05,.9-1.84,1.6-2.39,.7-.54,1.51-.82,2.45-.82,.74,0,1.36,.16,1.86,.47,.5,.31,.92,.82,1.25,1.51,.33,.7,.53,1.55,.61,2.56h12.52c-.04-2.95-.72-5.53-2.04-7.74-1.32-2.21-3.19-3.92-5.62-5.12-2.43-1.2-5.29-1.81-8.59-1.81s-6.47,.69-9.05,2.07c-2.58,1.38-4.58,3.36-6,5.94-1.42,2.58-2.13,5.62-2.13,9.11s.66,6.58,1.98,9.14c1.32,2.56,3.25,4.52,5.79,5.88,2.54,1.36,5.54,2.04,9,2.04s6.18-.58,8.65-1.75c2.46-1.16,4.41-2.82,5.82-4.98,1.42-2.15,2.2-4.67,2.36-7.54h-12.52c-.12,.93-.36,1.73-.73,2.39Z"/><path class="b" d="M238.65,173.81c-1.69-.99-3.78-1.48-6.26-1.48-1.51,0-2.91,.22-4.19,.67-1.28,.45-2.52,1.15-3.73,2.1-.43,.34-.86,.73-1.28,1.15v-13.58h-12.58v43.15h12.58v-19.6c.41-.45,.79-.84,1.14-1.16,.72-.68,1.41-1.19,2.07-1.54,.66-.35,1.36-.52,2.1-.52,.62,0,1.14,.14,1.54,.41,.41,.27,.7,.66,.87,1.16,.17,.5,.26,1.11,.26,1.8v19.45h12.58v-21.02c0-2.6-.43-4.83-1.28-6.7-.85-1.86-2.13-3.29-3.81-4.28Z"/><path class="b" d="M278.92,173.81c-1.69-.99-3.78-1.48-6.26-1.48-1.51,0-2.91,.22-4.19,.67-1.28,.45-2.52,1.15-3.73,2.1-.43,.34-.86,.73-1.28,1.15v-13.58h-12.58v43.15h12.58v-19.6c.41-.45,.79-.84,1.14-1.16,.72-.68,1.41-1.19,2.07-1.54,.66-.35,1.36-.52,2.1-.52,.62,0,1.14,.14,1.54,.41,.41,.27,.7,.66,.87,1.16,.17,.5,.26,1.11,.26,1.8v19.45h12.58v-21.02c0-2.6-.43-4.83-1.28-6.7-.85-1.86-2.13-3.29-3.81-4.28Z"/><path class="b" d="M313.98,173.81c-2.35-.99-5.08-1.48-8.18-1.48-3.26,0-6.09,.45-8.5,1.34-2.41,.89-4.28,2.17-5.62,3.84-1.34,1.67-2.12,3.67-2.36,6h12.05c.12-.58,.32-1.07,.61-1.46,.29-.39,.71-.68,1.25-.87,.54-.19,1.2-.29,1.98-.29,.74,0,1.38,.12,1.92,.35,.54,.23,.96,.58,1.25,1.05s.44,1.01,.44,1.63v1.51h-5.01c-2.87,0-5.34,.45-7.4,1.34-2.06,.89-3.62,2.17-4.69,3.84-1.07,1.67-1.6,3.65-1.6,5.94,0,1.94,.46,3.67,1.37,5.18,.91,1.51,2.17,2.69,3.78,3.52,1.61,.83,3.39,1.25,5.33,1.25,1.55,0,2.94-.18,4.16-.55s2.29-.92,3.2-1.66c.35-.28,.68-.6,.99-.93l.2,2.44h12.29v-21.19c0-2.48-.66-4.66-1.98-6.52-1.32-1.86-3.15-3.29-5.5-4.28Zm-5.15,21.74c-.43,.46-.96,.84-1.57,1.12-.85,.39-1.82,.58-2.91,.58-.54,0-1-.08-1.37-.23-.37-.15-.65-.38-.84-.67-.19-.29-.29-.63-.29-1.02,0-.35,.1-.67,.29-.96,.19-.29,.47-.52,.81-.7,.35-.17,.78-.26,1.28-.26l4.6-.15v2.29Z"/><polygon class="b" points="345.5 162.72 342.36 162.72 332.93 162.72 329.73 162.72 329.73 172.73 332.93 172.73 332.93 195.79 327.98 195.79 327.98 205.8 332.93 205.8 345.5 205.8 350.51 205.8 350.51 195.79 345.5 195.79 345.5 162.72"/><path class="b" d="M377.1,195.79c-1.36,0-2.37-.06-3.03-.17-.66-.12-1.18-.43-1.57-.93-.39-.5-.58-1.32-.58-2.45v-9.2h7.57v-10.01h-7.57v-11.47l-12.52,5.01v6.46h-5.71v10.01h5.71v10.25c0,2.83,.52,5.18,1.57,7.05,1.05,1.86,2.52,3.24,4.43,4.13,1.9,.89,4.13,1.34,6.7,1.34h11.41v-10.01h-6.4Z"/><rect class="b" x="395.15" y="160.1" width="12.69" height="9.78"/><polygon class="b" points="407.78 173.02 404.58 173.02 395.21 173.02 392.01 173.02 392.01 183.04 395.21 183.04 395.21 195.79 389.97 195.79 389.97 205.8 395.21 205.8 407.78 205.8 412.15 205.8 412.15 195.79 407.78 195.79 407.78 173.02"/><path class="b" d="M440.58,175.35c-1.01-.97-2.21-1.72-3.61-2.24-1.4-.52-2.81-.79-4.25-.79-2.83,0-5.32,.65-7.45,1.95-2.14,1.3-3.78,3.12-4.95,5.47-1.16,2.35-1.75,5.09-1.75,8.24s.58,5.64,1.75,7.95c1.16,2.31,2.81,4.1,4.95,5.36,2.13,1.26,4.62,1.89,7.45,1.89,1.55,0,3-.25,4.34-.76,1.34-.5,2.47-1.28,3.41-2.33v2.68c0,1.59-.43,2.79-1.28,3.61-.85,.82-2.06,1.22-3.61,1.22-1.32,0-2.33-.21-3.03-.64-.7-.43-1.11-1.07-1.22-1.92h-13.04c.19,2.6,1.03,4.78,2.5,6.55,1.47,1.77,3.41,3.09,5.79,3.96,2.39,.87,5.15,1.31,8.3,1.31,3.88,0,7.18-.54,9.9-1.63,2.72-1.09,4.77-2.68,6.17-4.77,1.4-2.1,2.1-4.66,2.1-7.69v-29.75h-12.29l-.17,2.33Zm-.12,15.02c-.23,.78-.58,1.45-1.05,2.01-.47,.56-1,.99-1.6,1.28-.6,.29-1.25,.44-1.95,.44-1.01,0-1.88-.26-2.62-.79-.74-.52-1.3-1.26-1.69-2.21-.39-.95-.58-2.07-.58-3.35s.19-2.45,.58-3.41c.39-.95,.95-1.69,1.69-2.21,.74-.52,1.63-.79,2.68-.79,.66,0,1.29,.15,1.89,.44,.6,.29,1.14,.72,1.6,1.28,.47,.56,.81,1.21,1.05,1.95v5.36Z"/><polygon class="b" points="494.74 173.02 479.83 173.02 477.85 175.23 471.5 183.33 472.55 173.78 472.55 162.72 459.98 162.72 459.98 205.8 472.55 205.8 472.55 194.92 475.41 192.1 481.75 205.8 495.61 205.8 484.36 183.26 494.74 173.02"/><path class="b" d="M524.8,174.65c-2.6-1.55-5.86-2.33-9.78-2.33-3.57,0-6.67,.7-9.29,2.1s-4.65,3.39-6.08,5.97c-1.44,2.58-2.15,5.6-2.15,9.05s.7,6.58,2.1,9.14,3.4,4.52,6,5.88c2.6,1.36,5.69,2.04,9.26,2.04,3.18,0,6-.49,8.44-1.48,2.45-.99,4.39-2.41,5.82-4.25,1.44-1.84,2.25-4.01,2.45-6.49h-12.34c-.08,.47-.32,.87-.73,1.22-.41,.35-.89,.62-1.46,.82-.56,.19-1.16,.29-1.78,.29-1.28,0-2.31-.24-3.09-.73-.78-.48-1.35-1.21-1.72-2.18-.21-.54-.35-1.17-.44-1.86h21.6c.39-4.08,0-7.57-1.17-10.48-1.16-2.91-3.05-5.14-5.65-6.7Zm-14.33,9.94c.33-1.15,.85-2.03,1.55-2.6,.76-.62,1.81-.93,3.17-.93,.7,0,1.32,.16,1.86,.47,.54,.31,.98,.74,1.31,1.28,.33,.54,.51,1.13,.55,1.75l-8.45,.04Z"/><rect class="b" x="543" y="160.1" width="12.69" height="9.78"/><polygon class="b" points="555.64 173.02 552.44 173.02 543.06 173.02 539.86 173.02 539.86 183.04 543.06 183.04 543.06 195.79 537.82 195.79 537.82 205.8 543.06 205.8 555.64 205.8 560.01 205.8 560.01 195.79 555.64 195.79 555.64 173.02"/><path class="b" d="M588.6,195.79c-1.36,0-2.37-.06-3.03-.17-.66-.12-1.18-.43-1.57-.93-.39-.5-.58-1.32-.58-2.45v-9.2h7.57v-10.01h-7.57v-11.47l-12.52,5.01v6.46h-5.71v10.01h5.71v10.25c0,2.83,.52,5.18,1.57,7.05,1.05,1.86,2.52,3.24,4.43,4.13,1.9,.89,4.13,1.34,6.7,1.34h11.41v-10.01h-6.4Z"/></g><path class="c" d="M655.81,204.57c2.48-1.3,4.39-3.13,5.73-5.49,1.34-2.36,2.01-5.08,2.01-8.16v-27h-6.48v27c0,2.04-.4,3.83-1.2,5.37-.8,1.54-1.94,2.72-3.42,3.54-1.48,.82-3.22,1.23-5.22,1.23s-3.67-.41-5.13-1.23c-1.46-.82-2.61-2-3.45-3.54-.84-1.54-1.26-3.33-1.26-5.37v-27h-6.42v27c0,3.08,.67,5.8,2.01,8.16,1.34,2.36,3.24,4.19,5.7,5.49s5.31,1.95,8.55,1.95,6.1-.65,8.58-1.95Z"/><polygon class="c" points="700.08 205.8 707.99 205.8 707.99 163.92 701.81 163.92 701.81 184.56 702.35 197.52 684.95 163.92 676.97 163.92 676.97 205.8 683.09 205.8 683.09 185.1 682.62 172.56 700.08 205.8"/><path class="c" d="M744.91,203.22c2.98-1.72,5.28-4.17,6.9-7.35,1.62-3.18,2.43-6.89,2.43-11.13s-.81-7.87-2.43-11.01c-1.62-3.14-3.92-5.56-6.9-7.26-2.98-1.7-6.49-2.55-10.53-2.55h-12.96v41.88h12.96c4.04,0,7.55-.86,10.53-2.58Zm-17.07-33.9h6.54c2.64,0,4.96,.63,6.96,1.89,2,1.26,3.53,3.05,4.59,5.37,1.06,2.32,1.59,5.04,1.59,8.16s-.53,5.97-1.59,8.31c-1.06,2.34-2.59,4.15-4.59,5.43-2,1.28-4.32,1.92-6.96,1.92h-6.54v-31.08Z"/><path class="c" d="M391.57,233.15h-15.9v5.4h15.9v24.72c0,1.32-.23,2.46-.69,3.42-.46,.96-1.12,1.69-1.98,2.19-.86,.5-1.91,.75-3.15,.75h-15v5.4h14.94c2.68,0,4.93-.47,6.75-1.41,1.82-.94,3.19-2.3,4.11-4.08,.92-1.78,1.38-3.97,1.38-6.57v-29.82h-6.36Z"/><polygon class="c" points="418.77 256.07 435.03 256.07 435.03 250.61 418.77 250.61 418.77 238.55 442.41 238.55 442.41 233.15 412.35 233.15 412.35 275.03 442.65 275.03 442.65 269.63 418.77 269.63 418.77 256.07"/><polygon class="c" points="451.95 238.55 465.45 238.55 465.45 275.03 471.87 275.03 471.87 238.55 485.37 238.55 485.37 233.15 451.95 233.15 451.95 238.55"/><polygon class="c" points="494.92 238.55 509.86 238.55 518.56 238.61 513.16 245.15 494.08 270.47 494.08 275.03 526.42 275.03 526.42 269.63 510.7 269.63 502 269.57 507.34 263.03 526.42 237.71 526.42 233.15 494.92 233.15 494.92 238.55"/><polygon class="c" points="535.95 238.55 549.45 238.55 549.45 275.03 555.87 275.03 555.87 238.55 569.37 238.55 569.37 233.15 535.95 233.15 535.95 238.55"/><path class="c" d="M613.57,233.15l-12.9,41.88h6.42l3.26-10.5h15.6l3.23,10.5h6.54l-12.96-41.88h-9.18Zm-1.53,25.92l3.63-11.7,2.52-9.24,2.46,9.18,3.61,11.76h-12.22Z"/><polygon class="c" points="652.66 233.15 646.24 233.15 646.24 275.03 674.56 275.03 674.56 269.63 652.66 269.63 652.66 233.15"/><polygon class="c" points="691.51 233.15 685.09 233.15 685.09 275.03 713.41 275.03 713.41 269.63 691.51 269.63 691.51 233.15"/><polygon class="c" points="730.36 256.07 746.62 256.07 746.62 250.61 730.36 250.61 730.36 238.55 754 238.55 754 233.15 723.94 233.15 723.94 275.03 754.24 275.03 754.24 269.63 730.36 269.63 730.36 256.07"/></svg>