<?xml version="1.0" encoding="utf-8"?>
<!-- Generator: Adobe Illustrator 26.3.1, SVG Export Plug-In . SVG Version: 6.00 Build 0)  -->
<svg version="1.1" id="Ebene_1" xmlns="http://www.w3.org/2000/svg" xmlns:xlink="http://www.w3.org/1999/xlink" x="0px" y="0px"
	 viewBox="0 0 595.5 192.1" style="enable-background:new 0 0 595.5 192.1;" xml:space="preserve">
<style type="text/css">
	.st0{fill:#FFFFFF;}
	.st1{fill:#DD1367;}
</style>
<g>
	<g>
		<path class="st0" d="M196.7,91.5c-1.8-0.6-4.1-1.1-6.8-1.5c-1.2-0.2-2.2-0.4-3-0.6c-0.8-0.2-1.4-0.4-1.8-0.6
			c-0.5-0.3-0.7-0.6-0.7-1.1c0-0.3,0.1-0.6,0.3-0.8c0.2-0.3,0.6-0.5,1-0.6c0.4-0.2,0.9-0.2,1.5-0.2c1.2,0,2.1,0.2,2.8,0.7
			c0.7,0.5,1.1,1.1,1.1,1.9h11.6c-0.1-2.3-0.8-4.3-2.1-6.1c-1.3-1.7-3-3.1-5.3-4.1s-4.9-1.4-8-1.4c-3.2,0-5.9,0.5-8.3,1.4
			c-2.3,1-4.1,2.3-5.4,4.1s-1.9,3.8-1.9,6c0,2.6,0.7,4.6,2,6.1s2.9,2.5,4.6,3.1c1.8,0.6,4,1.1,6.6,1.6c1.4,0.2,2.5,0.5,3.3,0.7
			s1.4,0.5,1.9,0.8s0.7,0.8,0.7,1.3c0,0.4-0.2,0.8-0.5,1c-0.3,0.3-0.7,0.5-1.3,0.7c-0.5,0.2-1.1,0.2-1.8,0.2c-1,0-1.9-0.1-2.6-0.4
			c-0.7-0.2-1.3-0.6-1.6-1.1c-0.4-0.5-0.6-1-0.6-1.7h-11.6c0,2.5,0.7,4.7,2.1,6.5s3.4,3.2,5.9,4.2s5.5,1.4,8.8,1.4
			c3.2,0,6-0.5,8.3-1.4c2.4-1,4.2-2.4,5.4-4.2c1.3-1.8,1.9-3.9,1.9-6.4c0-2.8-0.7-4.9-2.1-6.5C200.1,93.2,198.5,92.1,196.7,91.5z"/>
		<path class="st0" d="M216,111.6c1.8,1,4,1.6,6.6,1.6c1.6,0,3-0.2,4.4-0.7s2.7-1.2,4-2.2c0.5-0.4,1-0.8,1.4-1.3l0.2,3.5h13V77.8
			h-13.3v20.7c-0.5,0.5-0.9,0.9-1.2,1.3c-0.7,0.7-1.5,1.3-2.2,1.6s-1.4,0.5-2.2,0.5c-0.7,0-1.2-0.1-1.6-0.4
			c-0.4-0.3-0.7-0.7-0.9-1.2c-0.2-0.5-0.3-1.2-0.3-1.9V77.8h-13.3v22.3c0,2.8,0.5,5.1,1.4,7.1C212.9,109,214.2,110.5,216,111.6z"/>
		<path class="st0" d="M278.4,91.5c-1.8-0.6-4.1-1.1-6.8-1.5c-1.2-0.2-2.2-0.4-3-0.6c-0.8-0.2-1.4-0.4-1.8-0.6
			c-0.5-0.3-0.7-0.6-0.7-1.1c0-0.3,0.1-0.6,0.3-0.8c0.2-0.3,0.6-0.5,1-0.6c0.4-0.2,0.9-0.2,1.5-0.2c1.2,0,2.1,0.2,2.8,0.7
			s1.1,1.1,1.1,1.9h11.6c-0.1-2.3-0.8-4.3-2.1-6.1c-1.3-1.7-3-3.1-5.3-4.1s-4.9-1.4-8-1.4c-3.2,0-5.9,0.5-8.3,1.4
			c-2.3,1-4.1,2.3-5.4,4.1c-1.3,1.8-1.9,3.8-1.9,6c0,2.6,0.7,4.6,2,6.1c1.3,1.5,2.9,2.5,4.6,3.1c1.8,0.6,4,1.1,6.6,1.6
			c1.4,0.2,2.5,0.5,3.3,0.7s1.4,0.5,1.9,0.8s0.7,0.8,0.7,1.3c0,0.4-0.2,0.8-0.5,1c-0.3,0.3-0.7,0.5-1.3,0.7
			c-0.5,0.2-1.1,0.2-1.8,0.2c-1,0-1.9-0.1-2.6-0.4c-0.7-0.2-1.3-0.6-1.6-1.1c-0.4-0.5-0.6-1-0.6-1.7h-11.6c0,2.5,0.7,4.7,2.1,6.5
			c1.4,1.8,3.4,3.2,5.9,4.2s5.5,1.4,8.8,1.4c3.2,0,6-0.5,8.3-1.4c2.4-1,4.2-2.4,5.4-4.2c1.3-1.8,1.9-3.9,1.9-6.4
			c0-2.8-0.7-4.9-2.1-6.5C281.8,93.2,280.2,92.1,278.4,91.5z"/>
		<path class="st0" d="M315.9,101.8c-1.4,0-2.5-0.1-3.2-0.2c-0.7-0.1-1.3-0.5-1.7-1s-0.6-1.4-0.6-2.6v-9.7h8V77.7h-8V65.6l-13.2,5.3
			v6.8h-6v10.6h6v10.8c0,3,0.6,5.5,1.7,7.5c1.1,2,2.7,3.4,4.7,4.4c2,0.9,4.4,1.4,7.1,1.4h12.1v-10.6h-6.6L315.9,101.8L315.9,101.8z"
			/>
		<path class="st0" d="M342.8,87.3c0.3-0.4,0.7-0.7,1.3-0.9c0.6-0.2,1.3-0.3,2.1-0.3c0.8,0,1.5,0.1,2,0.4c0.6,0.2,1,0.6,1.3,1.1
			s0.5,1.1,0.5,1.7v1.6h-5.3c-3,0-5.6,0.5-7.8,1.4c-2.2,0.9-3.8,2.3-5,4.1c-1.1,1.8-1.7,3.9-1.7,6.3c0,2.1,0.5,3.9,1.4,5.5
			c1,1.6,2.3,2.8,4,3.7s3.6,1.3,5.6,1.3c1.6,0,3.1-0.2,4.4-0.6c1.3-0.4,2.4-1,3.4-1.8c0.4-0.3,0.7-0.6,1.1-1l0.2,2.6h13V90
			c0-2.6-0.7-4.9-2.1-6.9c-1.4-2-3.3-3.5-5.8-4.5S350,77,346.7,77c-3.4,0-6.4,0.5-9,1.4c-2.5,0.9-4.5,2.3-5.9,4.1
			c-1.4,1.8-2.2,3.9-2.5,6.3H342C342.3,88.2,342.5,87.7,342.8,87.3z M350.1,101.6c-0.5,0.5-1,0.9-1.7,1.2c-0.9,0.4-1.9,0.6-3.1,0.6
			c-0.6,0-1.1-0.1-1.4-0.2c-0.4-0.2-0.7-0.4-0.9-0.7s-0.3-0.7-0.3-1.1c0-0.4,0.1-0.7,0.3-1c0.2-0.3,0.5-0.6,0.9-0.7
			c0.4-0.2,0.8-0.3,1.4-0.3l4.9-0.2L350.1,101.6L350.1,101.6z"/>
		<rect x="377" y="64.1" class="st0" width="13.4" height="10.3"/>
		<polygon class="st0" points="390.4,112.4 395,112.4 395,101.8 390.4,101.8 390.4,77.7 387,77.7 377.1,77.7 373.7,77.7 373.7,88.3 
			377.1,88.3 377.1,101.8 371.5,101.8 371.5,112.4 377.1,112.4 		"/>
		<path class="st0" d="M415.9,91.7c0.5-0.5,0.9-0.9,1.2-1.3c0.7-0.7,1.5-1.3,2.2-1.6s1.4-0.5,2.2-0.5c0.7,0,1.2,0.1,1.6,0.4
			c0.4,0.3,0.7,0.7,0.9,1.2s0.3,1.2,0.3,1.9v20.6h13.3V90.1c0-2.8-0.5-5.1-1.4-7.1c-0.9-1.9-2.2-3.4-4-4.5c-1.8-1-4-1.6-6.6-1.6
			c-1.6,0-3,0.2-4.4,0.7s-2.7,1.2-4,2.2c-0.5,0.4-1,0.8-1.4,1.3l-0.2-3.5h-13v34.7h13.3V91.7z"/>
		<path class="st0" d="M457.6,87.3c0.3-0.4,0.7-0.7,1.3-0.9s1.3-0.3,2.1-0.3s1.5,0.1,2,0.4c0.6,0.2,1,0.6,1.3,1.1s0.5,1.1,0.5,1.7
			v1.6h-5.3c-3,0-5.6,0.5-7.8,1.4s-3.8,2.3-5,4.1c-1.1,1.8-1.7,3.9-1.7,6.3c0,2.1,0.5,3.9,1.4,5.5c1,1.6,2.3,2.8,4,3.7
			s3.6,1.3,5.6,1.3c1.6,0,3.1-0.2,4.4-0.6c1.3-0.4,2.4-1,3.4-1.8c0.4-0.3,0.7-0.6,1.1-1l0.2,2.6h13V90c0-2.6-0.7-4.9-2.1-6.9
			c-1.4-2-3.3-3.5-5.8-4.5s-5.4-1.6-8.7-1.6c-3.5,0-6.4,0.5-9,1.4c-2.5,0.9-4.5,2.3-5.9,4.1s-2.2,3.9-2.5,6.3h12.7
			C457.1,88.2,457.3,87.7,457.6,87.3z M464.9,101.6c-0.5,0.5-1,0.9-1.7,1.2c-0.9,0.4-1.9,0.6-3.1,0.6c-0.6,0-1.1-0.1-1.4-0.2
			c-0.4-0.2-0.7-0.4-0.9-0.7s-0.3-0.7-0.3-1.1c0-0.4,0.1-0.7,0.3-1s0.5-0.6,0.9-0.7c0.4-0.2,0.8-0.3,1.4-0.3l4.9-0.2v2.4H464.9z"/>
		<path class="st0" d="M515.5,79.3c-2.2-1.5-4.7-2.3-7.5-2.3c-1.6,0-3.2,0.3-4.7,0.9c-1.5,0.6-2.9,1.4-4.1,2.5V66.9h-13.3v45.6h13
			l0.2-2.8c1.2,1.2,2.6,2,4.1,2.6s3.2,0.9,4.8,0.9c2.8,0,5.3-0.8,7.5-2.3s3.9-3.7,5.1-6.4c1.2-2.7,1.8-5.9,1.8-9.4s-0.6-6.7-1.8-9.4
			C519.4,82.9,517.7,80.8,515.5,79.3z M508.5,98.9c-0.5,1.1-1.1,2-1.8,2.6c-0.8,0.6-1.7,0.9-2.8,0.9s-2-0.4-2.9-1.1
			c-0.8-0.7-1.4-1.7-1.8-2.9v-6.7c0.4-1.2,1-2.2,1.8-2.9s1.8-1,2.9-1c1.1,0,2,0.3,2.8,0.9c0.8,0.6,1.4,1.4,1.8,2.6
			c0.5,1.1,0.7,2.4,0.7,3.8C509.1,96.5,508.9,97.8,508.5,98.9z"/>
		<polygon class="st0" points="547.4,112.4 552.7,112.4 552.7,101.8 547.4,101.8 547.4,66.8 544.1,66.8 534.1,66.8 530.7,66.8 
			530.7,77.4 534.1,77.4 534.1,101.8 528.9,101.8 528.9,112.4 534.1,112.4 		"/>
		<path class="st0" d="M594.3,86.5c-1.2-3.1-3.2-5.4-6-7.1c-2.8-1.6-6.2-2.5-10.3-2.5c-3.8,0-7.1,0.7-9.8,2.2
			c-2.8,1.5-4.9,3.6-6.4,6.3s-2.3,5.9-2.3,9.6c0,3.7,0.7,7,2.2,9.7s3.6,4.8,6.3,6.2c2.8,1.4,6,2.2,9.8,2.2c3.4,0,6.3-0.5,8.9-1.6
			c2.6-1,4.6-2.5,6.2-4.5c1.5-1.9,2.4-4.2,2.6-6.9h-13.1c-0.1,0.5-0.3,0.9-0.8,1.3c-0.4,0.4-0.9,0.7-1.5,0.9s-1.2,0.3-1.9,0.3
			c-1.4,0-2.4-0.3-3.3-0.8c-0.8-0.5-1.4-1.3-1.8-2.3c-0.2-0.6-0.4-1.2-0.5-2h22.9C595.9,93.3,595.5,89.6,594.3,86.5z M573.2,90
			c0.4-1.2,0.9-2.1,1.6-2.8c0.8-0.7,1.9-1,3.4-1c0.7,0,1.4,0.2,2,0.5s1,0.8,1.4,1.4c0.3,0.6,0.5,1.2,0.6,1.8L573.2,90z"/>
		<path class="st0" d="M189.9,149.1c-0.8-0.7-1.7-1.3-2.6-1.8s-1.9-0.9-3-1.2c-1-0.3-2.1-0.4-3.2-0.4c-2.8,0-5.3,0.8-7.5,2.3
			s-3.9,3.6-5.1,6.4c-1.2,2.7-1.8,5.9-1.8,9.4c0,3.5,0.6,6.7,1.8,9.4c1.2,2.7,2.9,4.9,5.1,6.4s4.6,2.3,7.5,2.3
			c1.7,0,3.3-0.3,4.9-0.9s2.9-1.5,4.1-2.6l0.2,2.8h13v-45.6h-13.4V149.1z M189.9,167.1c-0.4,1.2-1,2.2-1.9,2.9
			c-0.8,0.7-1.8,1.1-2.8,1.1c-1.1,0-2-0.3-2.8-0.9s-1.4-1.5-1.8-2.6c-0.5-1.1-0.7-2.4-0.7-3.8s0.2-2.7,0.7-3.8s1.1-2,1.8-2.6
			c0.8-0.6,1.7-0.9,2.8-0.9c0.7,0,1.3,0.2,1.9,0.5s1.1,0.8,1.6,1.4c0.5,0.6,0.9,1.3,1.1,2.1L189.9,167.1L189.9,167.1z"/>
		<path class="st0" d="M236,148.2c-2.8-1.6-6.2-2.5-10.3-2.5c-3.8,0-7.1,0.7-9.8,2.2c-2.8,1.5-4.9,3.6-6.4,6.3s-2.3,5.9-2.3,9.6
			s0.7,7,2.2,9.7s3.6,4.8,6.3,6.2c2.8,1.4,6,2.2,9.8,2.2c3.4,0,6.3-0.5,8.9-1.6c2.6-1,4.6-2.5,6.2-4.5c1.5-1.9,2.4-4.2,2.6-6.9
			h-13.1c-0.1,0.5-0.3,0.9-0.8,1.3c-0.4,0.4-0.9,0.7-1.5,0.9c-0.6,0.2-1.2,0.3-1.9,0.3c-1.4,0-2.4-0.3-3.3-0.8
			c-0.8-0.5-1.4-1.3-1.8-2.3c-0.2-0.6-0.4-1.2-0.5-2h22.9c0.4-4.3,0-8-1.2-11.1C240.7,152.2,238.7,149.8,236,148.2z M220.8,158.7
			c0.4-1.2,0.9-2.1,1.6-2.8c0.8-0.7,1.9-1,3.4-1c0.7,0,1.4,0.2,2,0.5s1,0.8,1.4,1.4c0.3,0.6,0.5,1.2,0.6,1.8L220.8,158.7z"/>
		<polygon class="st0" points="266.7,160.6 264.9,170 263.3,160.6 259.5,146.5 245.4,146.5 257,181.1 272.6,181.1 284.2,146.5 
			270.4,146.5 		"/>
		<path class="st0" d="M315.1,148.2c-2.8-1.6-6.2-2.5-10.3-2.5c-3.8,0-7.1,0.7-9.8,2.2c-2.8,1.5-4.9,3.6-6.4,6.3s-2.3,5.9-2.3,9.6
			s0.7,7,2.2,9.7s3.6,4.8,6.3,6.2c2.8,1.4,6,2.2,9.8,2.2c3.4,0,6.3-0.5,8.9-1.6c2.6-1.1,4.6-2.5,6.2-4.5c1.5-1.9,2.4-4.2,2.6-6.9
			h-13.1c-0.1,0.5-0.3,0.9-0.8,1.3c-0.4,0.4-0.9,0.7-1.5,0.9c-0.6,0.2-1.2,0.3-1.9,0.3c-1.4,0-2.4-0.3-3.3-0.8
			c-0.8-0.5-1.4-1.3-1.8-2.3c-0.2-0.6-0.4-1.2-0.5-2h22.9c0.4-4.3,0-8-1.2-11.1C319.9,152.2,317.9,149.8,315.1,148.2z M300,158.7
			c0.4-1.2,0.9-2.1,1.6-2.8c0.8-0.7,1.9-1,3.4-1c0.7,0,1.4,0.2,2,0.5c0.6,0.3,1,0.8,1.4,1.4c0.3,0.6,0.5,1.2,0.6,1.8L300,158.7z"/>
		<polygon class="st0" points="345.3,135.6 342,135.6 332,135.6 328.6,135.6 328.6,146.2 332,146.2 332,170.5 326.8,170.5 
			326.8,181.1 332,181.1 345.3,181.1 350.6,181.1 350.6,170.5 345.3,170.5 		"/>
		<path class="st0" d="M382.7,147.9c-2.7-1.4-5.9-2.2-9.6-2.2s-7,0.7-9.7,2.2c-2.7,1.4-4.8,3.5-6.3,6.3c-1.5,2.7-2.2,6-2.2,9.7
			s0.7,6.9,2.2,9.6s3.6,4.8,6.3,6.3c2.7,1.5,6,2.2,9.7,2.2s6.9-0.7,9.6-2.2s4.8-3.5,6.3-6.3c1.5-2.7,2.2-5.9,2.2-9.6
			c0-3.7-0.7-7-2.2-9.7C387.5,151.4,385.4,149.3,382.7,147.9z M377.3,167.8c-0.4,1.1-1,2-1.7,2.6s-1.6,0.9-2.6,0.9s-1.9-0.3-2.6-0.9
			s-1.3-1.4-1.7-2.6c-0.4-1.1-0.6-2.4-0.6-4s0.2-3,0.6-4.1c0.4-1.1,1-2,1.7-2.6s1.6-0.9,2.6-0.9c0.9,0,1.8,0.3,2.5,0.9
			c0.7,0.6,1.3,1.4,1.7,2.6c0.4,1.1,0.6,2.5,0.6,4.1C377.9,165.4,377.7,166.7,377.3,167.8z"/>
		<path class="st0" d="M424.9,148c-2.2-1.5-4.8-2.3-7.6-2.3c-1.7,0-3.3,0.3-4.9,0.9c-1.6,0.6-3,1.5-4.2,2.6l-0.2-2.8h-13v45.7h13.3
			v-13.7c1.2,1.1,2.6,2,4.2,2.6c1.5,0.6,3.2,0.9,4.8,0.9c2.9,0,5.4-0.8,7.6-2.3c2.2-1.5,3.9-3.7,5.1-6.4c1.2-2.8,1.8-5.9,1.8-9.4
			s-0.6-6.7-1.8-9.4C428.9,151.7,427.2,149.5,424.9,148z M418,167.6c-0.5,1.1-1.1,1.9-1.9,2.6c-0.8,0.6-1.8,0.9-2.9,0.9
			s-2.1-0.4-3-1.1s-1.5-1.7-1.9-2.9v-6.7c0.2-0.8,0.6-1.5,1.1-2.1s1.1-1.1,1.7-1.4c0.7-0.3,1.3-0.5,2-0.5c1.1,0,2.1,0.3,2.9,0.9
			c0.8,0.6,1.5,1.4,1.9,2.6c0.5,1.1,0.7,2.4,0.7,3.9C418.7,165.3,418.4,166.5,418,167.6z"/>
		<path class="st0" d="M476.1,147c-1.4-0.8-3.1-1.2-5.1-1.2c-2.3,0-4.2,0.5-5.9,1.6c-1.2,0.8-2.1,1.7-2.9,2.9
			c-0.8-1.4-1.8-2.5-3.2-3.3s-3.1-1.2-4.9-1.2c-1.7,0-3.4,0.5-5,1.6c-1.1,0.7-2,1.6-2.7,2.7l-0.2-3.5h-11.1v34.5h11.5v-22.2
			c0.4-0.7,0.8-1.2,1.2-1.6c0.6-0.6,1.3-0.9,2.1-0.9c0.5,0,0.9,0.1,1.2,0.3c0.4,0.2,0.6,0.5,0.8,1c0.2,0.4,0.3,0.9,0.3,1.5v21.9
			h11.4v-22c0.4-0.7,0.8-1.3,1.3-1.7c0.6-0.6,1.3-0.9,2-0.9c0.5,0,0.9,0.1,1.2,0.3s0.6,0.5,0.8,1c0.2,0.4,0.3,0.9,0.3,1.5v21.8h11.5
			v-23.8c0-2.6-0.4-4.8-1.3-6.5C478.6,149.1,477.5,147.8,476.1,147z"/>
		<path class="st0" d="M513.3,148.2c-2.8-1.6-6.2-2.5-10.3-2.5c-3.8,0-7.1,0.7-9.8,2.2c-2.8,1.5-4.9,3.6-6.4,6.3s-2.3,5.9-2.3,9.6
			s0.7,7,2.2,9.7s3.6,4.8,6.3,6.2c2.8,1.4,6,2.2,9.8,2.2c3.4,0,6.3-0.5,8.9-1.6c2.6-1,4.6-2.5,6.2-4.5c1.5-1.9,2.4-4.2,2.6-6.9
			h-13.1c-0.1,0.5-0.3,0.9-0.8,1.3c-0.4,0.4-0.9,0.7-1.5,0.9c-0.6,0.2-1.2,0.3-1.9,0.3c-1.4,0-2.4-0.3-3.3-0.8
			c-0.8-0.5-1.4-1.3-1.8-2.3c-0.2-0.6-0.4-1.2-0.5-2h22.9c0.4-4.3,0-8-1.2-11.1C518.1,152.2,516.1,149.8,513.3,148.2z M498.2,158.7
			c0.4-1.2,0.9-2.1,1.6-2.8c0.8-0.7,1.9-1,3.4-1c0.7,0,1.4,0.2,2,0.5s1,0.8,1.4,1.4c0.3,0.6,0.5,1.2,0.6,1.8L498.2,158.7z"/>
		<path class="st0" d="M554.4,147.3c-1.8-1-4-1.6-6.6-1.6c-1.6,0-3,0.2-4.4,0.7s-2.7,1.2-4,2.2c-0.5,0.4-1,0.8-1.4,1.3l-0.2-3.5h-13
			v34.7h13.3v-20.7c0.5-0.5,0.9-0.9,1.2-1.3c0.7-0.7,1.5-1.3,2.2-1.6s1.4-0.5,2.2-0.5c0.7,0,1.2,0.1,1.6,0.4
			c0.4,0.3,0.7,0.7,0.9,1.2s0.3,1.2,0.3,1.9v20.6h13.3v-22.3c0-2.8-0.5-5.1-1.4-7.1C557.6,149.8,556.2,148.3,554.4,147.3z"/>
		<path class="st0" d="M588.2,170.5c-1.4,0-2.5-0.1-3.2-0.2s-1.3-0.5-1.7-1s-0.6-1.4-0.6-2.6v-9.6h8v-10.6h-8v-12.1l-13.2,5.3v6.8
			h-6v10.6h6v10.8c0,3,0.6,5.5,1.7,7.5s2.7,3.4,4.7,4.4c2,0.9,4.4,1.4,7.1,1.4h12.1v-10.6h-6.6L588.2,170.5L588.2,170.5z"/>
	</g>
	<path class="st1" d="M20.1,41.2c1.5-0.5,2.8-1.3,3.8-2.3s1.8-2.3,2.3-3.7c0.5-1.5,0.8-3.2,0.8-5.1V0.6h-0.5h-5.9H4.9v5.3h15.7v24.4
		c0,1.9-0.5,3.5-1.5,4.6c-1,1.1-2.4,1.7-4.3,1.7H0v5.3h14.8C16.8,42,18.6,41.7,20.1,41.2z"/>
	<path class="st1" d="M58.3,40.1c2.6,1.7,5.7,2.6,9.2,2.6s6.6-0.9,9.2-2.6c2.6-1.7,4.6-4.2,6.1-7.4c1.4-3.2,2.2-7,2.2-11.3
		c0-4.4-0.7-8.2-2.2-11.4c-1.4-3.2-3.5-5.7-6.1-7.4C74.1,0.9,71,0,67.5,0s-6.6,0.9-9.2,2.6c-2.6,1.7-4.7,4.2-6.1,7.4
		c-1.4,3.2-2.1,7-2.1,11.4c0,4.3,0.7,8.1,2.1,11.3S55.6,38.4,58.3,40.1z M58,12.8c0.9-2.4,2.2-4.2,3.8-5.6c1.6-1.3,3.5-2,5.7-2
		s4,0.7,5.7,2c1.6,1.3,2.9,3.2,3.8,5.6c0.9,2.4,1.4,5.3,1.4,8.5c0,3.3-0.5,6.1-1.4,8.5s-2.2,4.3-3.8,5.6s-3.5,2-5.7,2s-4-0.7-5.7-2
		c-1.6-1.3-2.9-3.2-3.8-5.6c-0.9-2.4-1.4-5.3-1.4-8.5C56.6,18,57.1,15.2,58,12.8z"/>
	<polygon class="st1" points="124.4,42 134.7,42 134.7,36.7 124.4,36.7 124.4,6 134.7,6 134.7,0.6 124.4,0.6 118.1,0.6 107.7,0.6 
		107.7,6 118.1,6 118.1,36.7 107.7,36.7 107.7,42 118.1,42 	"/>
	<polygon class="st1" points="185.4,21 185.9,33.8 168.6,0.6 160.8,0.6 160.8,42 166.9,42 166.9,21.5 166.3,9.2 183.6,42 191.5,42 
		191.5,0.6 185.4,0.6 	"/>
	<polygon class="st1" points="214.7,6 228,6 228,42 234.4,42 234.4,6 247.7,6 247.7,0.6 214.7,0.6 	"/>
	<path class="st1" d="M300,0.6L287.3,42h6.3l3.2-10.4h15.4l3.2,10.4h6.5L309.1,0.6C309.1,0.6,300,0.6,300,0.6z M298.5,26.2l3.6-11.6
		l2.5-9.1l2.4,9l3.6,11.6L298.5,26.2L298.5,26.2z"/>
	<path class="st1" d="M368.6,33c-0.9,1.4-2,2.5-3.4,3.2c-1.4,0.8-3,1.2-4.8,1.2c-2.1,0-4-0.6-5.7-1.9c-1.7-1.3-3-3.1-4-5.5
		s-1.5-5.3-1.5-8.6c0-3.3,0.5-6.1,1.4-8.5c0.9-2.4,2.3-4.3,4-5.6c1.7-1.3,3.7-2,5.9-2c2.6,0,4.8,0.8,6.5,2.4s2.6,3.7,2.9,6.4h6.9
		c-0.2-2.9-1.1-5.4-2.6-7.5s-3.4-3.7-5.7-4.9c-2.4-1.1-5-1.7-7.9-1.7c-3.6,0-6.7,0.9-9.5,2.6c-2.7,1.8-4.8,4.2-6.3,7.4
		c-1.5,3.2-2.3,7-2.3,11.3c0,4.1,0.7,7.8,2.2,11.1c1.4,3.2,3.5,5.8,6.2,7.6s5.8,2.7,9.5,2.7c3.2,0,6-0.6,8.4-1.8
		c2.4-1.2,4.3-2.9,5.7-5.1c1.4-2.2,2.3-4.7,2.5-7.7h-6.9C370,30,369.4,31.6,368.6,33z"/>
	<polygon class="st1" points="398.3,6 411.6,6 411.6,42 417.9,42 417.9,6 431.3,6 431.3,0.6 398.3,0.6 	"/>
	<polygon class="st1" points="466.7,0.6 456.4,0.6 456.4,6 466.7,6 466.7,36.7 456.4,36.7 456.4,42 466.7,42 473,42 483.3,42 
		483.3,36.7 473,36.7 473,6 483.3,6 483.3,0.6 473,0.6 	"/>
	<path class="st1" d="M534.2,2.5c-2.6-1.7-5.7-2.6-9.2-2.6s-6.6,0.9-9.2,2.6c-2.6,1.7-4.7,4.2-6.1,7.4c-1.4,3.2-2.1,7-2.1,11.4
		c0,4.3,0.7,8.1,2.1,11.3c1.4,3.2,3.4,5.7,6.1,7.4c2.6,1.7,5.7,2.6,9.2,2.6s6.6-0.9,9.2-2.6c2.6-1.7,4.6-4.2,6.1-7.4
		c1.4-3.2,2.2-7,2.2-11.3c0-4.4-0.7-8.2-2.2-11.4C538.9,6.7,536.9,4.3,534.2,2.5z M534.5,29.8c-0.9,2.4-2.2,4.3-3.8,5.6
		s-3.5,2-5.7,2s-4-0.7-5.7-2c-1.6-1.3-2.9-3.2-3.8-5.6c-0.9-2.4-1.4-5.3-1.4-8.5c0-3.3,0.5-6.1,1.4-8.5s2.2-4.2,3.8-5.6
		c1.6-1.3,3.5-2,5.7-2s4,0.7,5.7,2c1.6,1.3,2.9,3.2,3.8,5.6c0.9,2.4,1.4,5.3,1.4,8.5C535.9,24.6,535.5,27.4,534.5,29.8z"/>
	<polygon class="st1" points="589.4,0.6 589.4,21 589.9,33.8 572.6,0.6 564.8,0.6 564.8,42 570.9,42 570.9,21.5 570.3,9.2 587.6,42 
		595.5,42 595.5,0.6 	"/>
	<polygon class="st1" points="1.9,112.4 8.2,112.4 8.2,93.7 24.6,93.7 24.6,88.3 8.2,88.3 8.2,76.4 31.9,76.4 31.9,71.1 1.9,71.1 	
		"/>
	<path class="st1" d="M76.7,73c-2.6-1.7-5.7-2.6-9.2-2.6s-6.6,0.9-9.2,2.6c-2.6,1.7-4.7,4.2-6.1,7.4c-1.4,3.2-2.1,7-2.1,11.4
		c0,4.3,0.7,8.1,2.1,11.3c1.4,3.2,3.4,5.7,6.1,7.4c2.6,1.7,5.7,2.6,9.2,2.6s6.6-0.9,9.2-2.6c2.6-1.7,4.6-4.2,6.1-7.4
		c1.4-3.2,2.2-7,2.2-11.3c0-4.4-0.7-8.2-2.2-11.4C81.3,77.2,79.3,74.7,76.7,73z M77,100.3c-0.9,2.4-2.2,4.3-3.8,5.6s-3.5,2-5.7,2
		s-4-0.7-5.7-2c-1.6-1.3-2.9-3.2-3.8-5.6c-0.9-2.4-1.4-5.3-1.4-8.5c0-3.3,0.5-6.1,1.4-8.5s2.2-4.2,3.8-5.6c1.6-1.3,3.5-2,5.7-2
		s4,0.7,5.7,2c1.6,1.3,2.9,3.2,3.8,5.6c0.9,2.4,1.4,5.3,1.4,8.5C78.3,95,77.9,97.9,77,100.3z"/>
	<path class="st1" d="M134,91.4c1.4-1.2,2.4-2.5,3.1-4s1.1-3,1.1-4.6c0-2.4-0.6-4.6-1.8-6.3c-1.2-1.8-2.9-3.1-5.1-4
		c-2.2-0.9-4.6-1.4-7.3-1.4h-10h-1.8h-4.6v41.4h6.3V95.1h5c1.1,0.6,2.1,1.3,3,2c1.9,1.4,3.5,3,4.8,4.7s2.3,3.4,3.1,5.2
		c0.7,1.8,1.2,3.6,1.5,5.5h6.5c-0.2-1.9-0.6-3.9-1.3-5.8c-0.7-1.9-1.6-3.8-2.8-5.5c-1.2-1.8-2.8-3.5-4.7-5c-0.6-0.5-1.2-1-1.9-1.5
		c0.6-0.1,1.2-0.3,1.8-0.5C131,93.4,132.7,92.5,134,91.4z M122.8,89.8h-8.7V76.4h10c1.4,0,2.7,0.3,3.9,0.8c1.1,0.5,2.1,1.3,2.7,2.2
		c0.7,0.9,1,2.1,1,3.4c0,1.4-0.4,2.7-1.1,3.7c-0.8,1-1.8,1.9-3.1,2.4C126,89.5,124.5,89.8,122.8,89.8z"/>
</g>
</svg>
